<?xml version="1.0" encoding="UTF-8" standalone="no"?> <svg width="48" height="48" viewBox="0 0 48 48" fill="none" xmlns="http://www.w3.org/2000/svg">
<path d="M0 24C0 10.7452 10.7452 0 24 0C37.2548 0 48 10.7452 48 24C48 37.2548 37.2548 48 24 48C10.7452 48 0 37.2548 0 24Z" fill="white"/>
<path d="M34.4697 33.23H13.5009C12.6878 33.23 12.0031 32.5667 12.0031 31.7322V16.5833C12.0031 15.7703 12.6664 15.0856 13.5009 15.0856H34.4697C35.2828 15.0856 35.9675 15.7489 35.9675 16.5833V31.7322C35.9675 32.5667 35.3042 33.23 34.4697 33.23Z" fill="#E3E3E3"/>
<path opacity="0.1" d="M14.9987 33.23L23.9639 26.0193L24.0281 25.6342L14.7847 18.9798L14.7633 32.9091L14.9987 33.23Z" fill="#231F20"/>
<path d="M13.5009 33.23C12.6664 33.23 12.0031 32.5667 12.0031 31.7322V16.5619C12.0031 15.7275 12.6664 15.5777 13.5009 15.5777C14.3354 15.5777 14.9987 15.7489 14.9987 16.5619V33.23H13.5009Z" fill="#D54B3D"/>
<path d="M13.5009 15.7917C14.5707 15.7917 14.7847 16.1126 14.7847 16.5619V33.016H13.5009C12.7948 33.016 12.2171 32.4383 12.2171 31.7322V16.5619C12.2171 16.0912 12.4311 15.7917 13.5009 15.7917ZM13.5009 15.5777C12.6664 15.5777 12.0031 15.7489 12.0031 16.5619V31.7322C12.0031 32.5667 12.6664 33.23 13.5009 33.23H14.9987V16.5619C14.9987 15.7275 14.3354 15.5777 13.5009 15.5777Z" fill="#D72B27"/>
<path d="M34.4697 33.23H32.9719V16.5192C32.9719 15.6847 33.6352 15.5777 34.4697 15.5777C35.3041 15.5777 35.9674 15.6847 35.9674 16.5192V31.7536C35.9674 32.5667 35.3041 33.23 34.4697 33.23Z" fill="#D54B3D"/>
<path d="M34.4697 15.7917C35.4325 15.7917 35.7535 15.9842 35.7535 16.5192V31.7536C35.7535 32.4597 35.1758 33.0374 34.4697 33.0374H33.1859V16.5192C33.1859 15.9628 33.5068 15.7917 34.4697 15.7917ZM34.4697 15.5777C33.6352 15.5777 32.9719 15.6847 32.9719 16.5192V33.2514H34.4697C35.3041 33.2514 35.9674 32.5881 35.9674 31.7536V16.5192C35.9674 15.6847 35.3041 15.5777 34.4697 15.5777Z" fill="#D72B27"/>
<path d="M28.0507 33.23L12.1285 17.1842L12.966 17.5248L24.0495 25.5058L35.9675 16.7666L35.9675 31.7536C35.9675 32.5667 35.3042 33.23 34.4697 33.23H28.0507Z" fill="url(#paint0_linear)"/>
<path d="M23.9639 26.0193L12.645 17.803C11.9817 17.3109 11.7892 16.3694 12.2813 15.7061C12.7734 15.0428 13.7363 14.893 14.421 15.3851L23.9853 22.3391L33.6138 15.2996C34.2771 14.8074 35.2186 14.9572 35.7107 15.6419C36.2028 16.3052 36.053 17.2467 35.3683 17.7388L23.9639 26.0193Z" fill="#D54B3D"/>
<path d="M34.4697 15.214C34.8762 15.214 35.2614 15.4065 35.5181 15.7489C35.9247 16.3266 35.7963 17.1183 35.24 17.5462L23.9639 25.7625L12.7734 17.6318C12.1957 17.2039 12.0459 16.3908 12.4525 15.8345C12.6878 15.5135 13.0944 15.2996 13.5223 15.2996C13.8005 15.2996 14.0786 15.3851 14.2926 15.5563L23.8355 22.4889L23.9639 22.5744L24.0923 22.4889L33.6994 15.4493C33.9348 15.2996 34.1915 15.214 34.4697 15.214ZM34.4697 15C34.1701 15 33.8492 15.0856 33.5924 15.2782L23.9639 22.3177L14.3996 15.3637C14.1428 15.1712 13.8219 15.0856 13.5009 15.0856C13.0302 15.0856 12.5594 15.2996 12.2599 15.7061C11.7892 16.3694 11.9817 17.3108 12.645 17.803L23.9639 26.0407L35.347 17.7388C36.0103 17.2467 36.16 16.3266 35.6893 15.6419C35.3897 15.214 34.9404 15 34.4697 15Z" fill="#D72B27"/>
<defs>
<linearGradient id="paint0_linear" x1="12.1294" y1="24.9979" x2="35.9752" y2="24.9979" gradientUnits="userSpaceOnUse">
<stop stop-opacity="0.1"/>
<stop offset="1" stop-opacity="0.2"/>
</linearGradient>
</defs>
</svg>
